<svg xmlns="http://www.w3.org/2000/svg" version="1.1" xmlns:xlink="http://www.w3.org/1999/xlink" width="1024" height="1024"><svg version="1.1" width="1024" height="1024" viewBox="300 390 430 480" xmlns="http://www.w3.org/2000/svg">
  <defs></defs>
  <path d="M0 0 C1.17336411 -0.00708481 2.34672821 -0.01416962 3.5556488 -0.02146912 C4.83937378 -0.0189917 6.12309875 -0.01651428 7.44572449 -0.01396179 C8.8142525 -0.01831008 10.18277808 -0.02349362 11.55130005 -0.02944946 C15.26631818 -0.04284064 18.98123457 -0.04341784 22.69627213 -0.04088616 C25.79999633 -0.03981617 28.90369997 -0.04470073 32.00741976 -0.04949158 C39.33257344 -0.06058795 46.65767585 -0.06102396 53.98283386 -0.05497742 C61.53206565 -0.04894151 69.08111088 -0.06123852 76.63031083 -0.08254749 C83.11708347 -0.10018231 89.60379684 -0.10616174 96.09059256 -0.10290974 C99.96240191 -0.10109917 103.83407828 -0.1037101 107.70586586 -0.11762428 C111.34946263 -0.1302281 114.99276959 -0.12823462 118.63636208 -0.11521339 C120.60426722 -0.11173148 122.57218131 -0.1230078 124.54005432 -0.13478088 C133.27155795 -0.08295801 139.81753119 0.8270832 146.25114441 7.26069641 C149.96843876 12.60582554 151.35618585 17.81086267 150.25114441 24.26069641 C148.35034811 30.19801519 145.25466943 33.67121107 140.25114441 37.26069641 C139.59114441 37.59069641 138.93114441 37.92069641 138.25114441 38.26069641 C138.04117438 48.15388727 137.88198102 58.04653494 137.78483486 67.94151306 C137.73817135 72.53797469 137.67504767 77.13289507 137.57218933 81.72846985 C137.47327152 86.17661817 137.42035596 90.62329942 137.39724922 95.07246399 C137.38081747 96.75645509 137.34873701 98.44038001 137.2995739 100.12373352 C136.95685651 112.3626885 139.34117095 120.43156892 146.16688347 130.62920094 C147.67450294 132.89772713 149.03662688 135.24533024 150.40348816 137.60054016 C151.32977177 139.1343635 152.258136 140.6669324 153.18864441 142.19819641 C154.21657692 143.90096612 155.24391088 145.6040973 156.27067566 147.30757141 C157.02211853 148.55377258 157.02211853 148.55377258 157.78874207 149.82514954 C160.00706575 153.51963987 162.19479298 157.23178794 164.37614441 160.94819641 C164.78735535 161.64864075 165.19856628 162.34908508 165.62223816 163.070755 C166.83251944 165.13369093 168.04196095 167.19711685 169.25114441 169.26069641 C173.98114877 177.33014706 178.7293354 185.38848003 183.50895691 193.42866516 C183.89337448 194.0753566 184.27779205 194.72204803 184.67385864 195.38833618 C186.30067782 198.12490055 187.92754708 200.86143505 189.55476379 203.59776306 C195.01646387 212.78399892 200.442514 221.98989232 205.83045959 231.21955872 C211.36771546 240.70424049 216.9685797 250.14380582 222.68882751 259.51939392 C270.00414605 337.07655452 270.00414605 337.07655452 260.25114441 379.26069641 C256.02378097 395.21702199 248.35269382 409.01374905 237.25114441 421.26069641 C236.81318542 421.7478009 236.37522644 422.2349054 235.92399597 422.73677063 C218.54215084 441.82981364 194.99386688 453.08552872 169.25114441 455.26069641 C166.27576937 455.38716348 163.30638355 455.40034065 160.32861328 455.39440918 C159.47733894 455.39667474 158.62606459 455.39894029 157.74899405 455.4012745 C154.92132756 455.40756043 152.09370966 455.40678864 149.26603699 455.40596008 C147.22833698 455.40895498 145.19063754 455.41235827 143.15293884 455.4161377 C137.6341097 455.42494892 132.11529608 455.42731462 126.59646058 455.42795348 C123.14308846 455.42866569 119.68972025 455.43080328 116.23634911 455.4334507 C104.1731631 455.44269508 92.10998813 455.44678678 80.04679871 455.44599915 C68.827566 455.44539882 57.60838145 455.45594419 46.38916093 455.47174281 C36.73618432 455.48484825 27.08322338 455.49018177 17.43023795 455.48954374 C11.67421663 455.4892896 5.91823812 455.4920938 0.16222572 455.50272179 C-5.25590519 455.51245325 -10.67395282 455.51244753 -16.09208679 455.50520515 C-18.07127314 455.50416552 -20.05046482 455.50648493 -22.02964211 455.51256561 C-54.63529537 455.60618616 -80.86135155 447.42917859 -104.74885559 424.26069641 C-123.57177553 405.5082743 -133.36845279 379.8086291 -134.06135559 353.44819641 C-133.56654198 327.39771513 -121.76776556 305.51333367 -108.47151184 283.76069641 C-105.15063188 278.30946488 -101.94739495 272.78895527 -98.7285614 267.27714539 C-92.92310974 257.33719984 -87.07044027 247.42964873 -81.12385559 237.57319641 C-75.41990064 228.11477758 -69.87106159 218.57559927 -64.37556458 208.99482727 C-59.45708217 200.43957884 -54.40438161 191.97132911 -49.30793762 183.52119446 C-45.02126126 176.4053117 -40.79993197 169.25451378 -36.62385559 162.07319641 C-32.06120213 154.22754057 -27.48605634 146.38985521 -22.87385559 138.57319641 C-22.37482727 137.72539612 -21.87579895 136.87759583 -21.36164856 136.00410461 C-20.873255 135.17741272 -20.38486145 134.35072083 -19.88166809 133.49897766 C-19.1883992 132.30147133 -19.1883992 132.30147133 -18.48112488 131.07977295 C-16.74885559 128.26069641 -16.74885559 128.26069641 -14.72779846 125.5372467 C-8.12371838 116.22018038 -7.58802607 108.4885294 -7.75666809 97.28804016 C-7.75635741 95.58984123 -7.75336787 93.89164091 -7.74784851 92.19345093 C-7.74510041 88.66223755 -7.7698733 85.13266894 -7.81575012 81.60176086 C-7.87291638 77.07845493 -7.86691628 72.55783493 -7.8415699 68.03432369 C-7.82767048 64.53998837 -7.84320965 61.04627498 -7.86808395 57.55201912 C-7.87709976 55.88348842 -7.87779796 54.21489091 -7.86995316 52.54635429 C-7.86413055 50.22178831 -7.89709269 47.9009523 -7.94075012 45.57685852 C-7.95155609 44.2570549 -7.96236206 42.93725128 -7.97349548 41.57745361 C-8.44096775 38.01173737 -8.44096775 38.01173737 -11.65483093 35.99484253 C-12.67585907 35.42257431 -13.69688721 34.85030609 -14.74885559 34.26069641 C-19.74189786 27.64828908 -20.36463182 22.34711637 -19.74885559 14.26069641 C-17.81473431 8.23078889 -13.30142314 4.41700053 -7.99463367 1.19593525 C-5.19814502 0.03135678 -3.02891108 0.00609826 0 0 Z " fill="#025B67" transform="translate(447.7488555908203,405.7393035888672)"></path>
  <path d="M0 0 C31.02 0 62.04 0 94 0 C93.9375 44 93.9375 44 93.84741211 57.796875 C93.86396687 61.94534908 93.86396687 61.94534908 93.89234924 66.09375 C93.89920092 67.91472576 93.88875714 69.73582489 93.86366272 71.55664062 C93.70145109 84.53692602 95.42862237 93.47605475 102.82883644 104.26782227 C104.77372056 107.14435043 106.50887926 110.13967821 108.28125 113.125 C108.97790307 114.2667954 109.67623655 115.40756884 110.37695312 116.546875 C115.89694634 125.52247372 121.38739611 134.49726245 126.45336914 143.73925781 C131.11488707 152.14897112 136.21725673 160.30960601 141.23828125 168.5078125 C141.60252701 169.10362122 141.96677277 169.69942993 142.34205627 170.31329346 C143.34490841 171.9529676 144.3499989 173.59127212 145.35522461 175.22949219 C146.67626222 177.45468661 147.88845688 179.6655844 149 182 C144.45366116 179.77888789 140.02242416 177.33518007 135.57617188 174.921875 C132.80068896 173.42973975 130.18629164 172.06565803 127.20703125 171.015625 C124.41531909 169.7309433 123.6431082 168.3909693 122.125 165.75 C115.20921163 154.87240321 103.49404179 149.06824523 91.1875 146.0625 C78.99199402 143.87741494 67.84923652 144.01546822 56.1484375 148.22265625 C50.56859784 149.60030897 45.59758004 147.93667881 40.1875 146.4375 C26.05518983 143.1637309 12.68420673 144.65890698 -1 149 C-1.95777344 149.30035156 -2.91554688 149.60070312 -3.90234375 149.91015625 C-10.59574642 152.29255381 -16.71603005 156.18874474 -21.38671875 161.609375 C-23.67721594 163.5837503 -25.95447097 163.95558258 -28.875 164.6875 C-35.48535363 166.5899198 -40.52889589 169.46516047 -46.22265625 173.1953125 C-48.4538731 174.64513273 -50.61588983 175.84188526 -53 177 C-48.56142782 168.72136183 -43.8912308 160.59344845 -39.125 152.5 C-38.37784144 151.2284861 -37.63077291 149.95691929 -36.88378906 148.68530273 C-30.67334826 138.11935559 -24.42870306 127.57368763 -18.171875 117.03515625 C-17.55207764 115.93526367 -16.93228027 114.83537109 -16.29370117 113.70214844 C-14.63749706 110.87590468 -12.74371817 108.4165068 -10.66918945 105.88378906 C3.61602981 87.19978728 0.64963549 65.02048746 0.3125 42.625 C0.209375 28.55875 0.10625 14.4925 0 0 Z " transform="translate(466,437)" style="fill: rgb(253, 211, 103);"></path>
  <path d="M0 0 C0.33 0 0.66 0 1 0 C1.4477048 2.83143037 1.85837542 5.66072177 2.25 8.5 C2.37890625 9.29148437 2.5078125 10.08296875 2.640625 10.8984375 C3.34983302 16.30614863 2.74396972 19.48051745 0.02832031 24.20410156 C-5.34928053 33.59575203 -5.56784933 47.02358407 -2.875 57.25 C-0.77823842 63.30954063 2.44506807 69.44506807 7 74 C7.25537109 76.34741211 7.25537109 76.34741211 7.2734375 79.27734375 C7.2940625 80.34919922 7.3146875 81.42105469 7.3359375 82.52539062 C7.36157586 84.76490139 7.38004198 87.00450811 7.390625 89.24414062 C7.73119753 105.14698548 14.63546792 118.08259705 26 129 C33.09879247 134.78513692 41.85817023 139.74980384 51.0625 140.5 C55.38485877 141.18966546 57.14112003 142.96045981 59.74804688 146.42602539 C60.5850161 147.60362542 61.41833704 148.78382668 62.24804688 149.96655273 C69.46143678 160.13895646 80.89665143 165.72607834 93 168 C96.04755166 168.30895122 99.06298862 168.38129331 102.125 168.375 C102.94959717 168.37338867 103.77419434 168.37177734 104.6237793 168.37011719 C113.34299713 168.19784402 121.85628663 166.821575 129.1953125 161.82421875 C132 160 132 160 135.0625 160.5625 C138 162 138 162 140.25 163.5 C149.92965299 168.77981072 161.85116435 167.80023995 172.109375 164.97265625 C179.68059717 162.4250423 186.06356207 158.35598355 191 152 C191.41636719 150.95714844 191.83273437 149.91429687 192.26171875 148.83984375 C194 146 194 146 197.15234375 145.1875 C198.40144531 145.125625 199.65054688 145.06375 200.9375 145 C213.24764453 143.93142655 222.73289239 138.13655387 231 129 C235.99697572 122.28102208 239.01894015 115.00340525 240.625 106.8125 C242.48681335 103.00424543 245.08392844 101.74692659 248.625 99.55078125 C259.67765373 92.33383466 265.28198053 80.20163309 268.5859375 67.80078125 C271.198072 50.13190921 268.58747029 34.56124523 258 20 C257.67 19.67 257.34 19.34 257 19 C257.09096556 16.13311752 257.23767988 13.29699485 257.4375 10.4375 C257.48970703 9.63119141 257.54191406 8.82488281 257.59570312 7.99414062 C257.72577376 5.99578262 257.86229056 3.99784614 258 2 C261.64474192 5.24431064 263.84097881 8.94162915 266.125 13.1875 C266.92559953 14.64274438 267.72773167 16.09714646 268.53125 17.55078125 C268.94117188 18.29408691 269.35109375 19.03739258 269.7734375 19.80322266 C271.66694346 23.19449787 273.64360576 26.53456206 275.625 29.875 C277.41858395 32.91553803 279.20930387 35.95776051 281 39 C281.60779297 40.03141113 282.21558594 41.06282227 282.84179688 42.12548828 C284.52319917 44.98527749 286.19876326 47.84825363 287.86883545 50.71466064 C288.84870868 52.39248179 289.83563723 54.06617626 290.82275391 55.73974609 C294.45702457 61.99053873 297.66668103 68.14629099 300 75 C300.22034912 75.63993896 300.44069824 76.27987793 300.66772461 76.93920898 C305.21942742 92.30446005 303.36919696 111.47553498 297 126 C296.55398438 127.06992187 296.10796875 128.13984375 295.6484375 129.2421875 C287.65309014 146.7962183 272.4657868 160.35411192 254.5625 167.25 C241.14801685 171.58348264 229.22522327 172.43904443 215.2253418 172.40405273 C213.15088536 172.4097648 211.07643206 172.41673228 209.00198364 172.42485046 C203.40057233 172.4427059 197.79931834 172.44162768 192.19788718 172.43590808 C187.50643196 172.43280474 182.81500646 172.43892148 178.12355548 172.44494683 C167.04727001 172.45896588 155.97106172 172.457453 144.89477539 172.44604492 C133.50274693 172.43457025 122.11095407 172.44863457 110.71895665 172.4754414 C100.90619468 172.49765976 91.09350633 172.50422186 81.28072101 172.49836498 C75.43411127 172.4950084 69.58765244 172.49732353 63.74106407 172.51461601 C58.23906158 172.53018081 52.73740568 172.52602453 47.23541641 172.50731087 C45.2280426 172.50365105 43.22064255 172.50665634 41.21329308 172.51719666 C26.25928081 172.58966092 12.00678086 171.45872164 -1.4375 164.1875 C-2.10088379 163.84058105 -2.76426758 163.49366211 -3.44775391 163.13623047 C-8.76870101 160.2809292 -13.52796708 157.07620326 -18 153 C-18.81855469 152.27296875 -19.63710938 151.5459375 -20.48046875 150.796875 C-35.34020166 136.85885019 -43.54445554 118.12882309 -44.33251953 97.91894531 C-44.64684335 81.87036602 -39.65799307 68.86810395 -32 55 C-31.65839844 54.3719043 -31.31679688 53.74380859 -30.96484375 53.09667969 C-25.32011829 42.73549635 -19.26415493 32.6071396 -13.23828125 22.46484375 C-11.13579668 18.92477361 -9.04917011 15.37632214 -6.98046875 11.81640625 C-6.51761475 11.02161865 -6.05476074 10.22683105 -5.57788086 9.40795898 C-4.70989412 7.9156729 -3.84470068 6.42175765 -2.98266602 4.92602539 C-2.01600734 3.26764057 -1.01229897 1.63092611 0 0 Z " fill="#3AC2BB" transform="translate(383,664)"></path>
  <path d="M0 0 C0.75990234 -0.01611328 1.51980469 -0.03222656 2.30273438 -0.04882812 C9.30799041 -0.05481041 15.77603556 1.4816265 21.0625 6.3125 C21.54351807 8.57145691 21.54351807 8.57145691 21.51660156 11.24291992 C21.51629944 12.24373093 21.51599731 13.24454193 21.51568604 14.27568054 C21.49504089 15.35388565 21.47439575 16.43209076 21.453125 17.54296875 C21.44746521 18.64852615 21.44180542 19.75408356 21.43597412 20.8931427 C21.41355795 24.42919964 21.36334996 27.96424859 21.3125 31.5 C21.29244187 33.89516767 21.27418991 36.29035121 21.2578125 38.68554688 C21.213676 44.56154267 21.14671128 50.43694933 21.0625 56.3125 C13.19977434 58.94722862 5.87014334 61.03599478 -2.25 58.125 C-5.23538658 56.11159975 -7.52202994 53.98223007 -9.9375 51.3125 C-11.113125 50.260625 -11.113125 50.260625 -12.3125 49.1875 C-14.57283726 45.18844176 -13.63897058 42.29114609 -13.05859375 37.8515625 C-12.6998786 35.16122577 -12.6998786 35.16122577 -14.5 32.625 C-17.64303338 30.93259741 -19.41527854 30.72546309 -22.9375 31.3125 C-26.05677583 33.60109911 -26.8568102 34.80284896 -27.46875 38.66796875 C-27.40644761 46.30779978 -27.09403026 52.67077158 -22.9375 59.3125 C-22.40125 60.199375 -21.865 61.08625 -21.3125 62 C-13.39165297 69.71240369 -3.71306156 73.44727208 7.1875 73.5625 C11.90042611 73.49837856 16.40351523 73.00348927 21.0625 72.3125 C21.2260994 88.89788659 21.3494983 105.48301105 21.4251852 122.06900978 C21.46126388 129.77040216 21.51044149 137.47129291 21.59057617 145.17236328 C21.66039735 151.88549588 21.70551926 158.59826516 21.72111946 165.31175077 C21.73023748 168.86597193 21.75162776 172.41915386 21.8026104 175.97304153 C21.85909401 179.94267341 21.86042598 183.91129326 21.85717773 187.88134766 C21.89492813 189.64433197 21.89492813 189.64433197 21.93344116 191.44293213 C21.86438626 199.23106745 21.86438626 199.23106745 19.54078865 202.3646965 C12.66115319 208.41529678 4.6602607 209.71078055 -4.2890625 209.58984375 C-13.94417138 208.57876303 -22.30930085 202.83274533 -28.3125 195.4375 C-31.20526858 191.70437407 -31.92314814 187.85338356 -32.9375 183.3125 C-34.06027344 183.28671875 -35.18304688 183.2609375 -36.33984375 183.234375 C-52.03061026 182.71035633 -52.03061026 182.71035633 -58.9375 178.3125 C-59.63101562 177.8896875 -60.32453125 177.466875 -61.0390625 177.03125 C-68.42500683 172.05196169 -72.62144066 165.1590167 -75.4921875 156.84375 C-76.16677679 153.00924247 -76.02232292 149.19550483 -75.9375 145.3125 C-74.69613281 145.32410156 -73.45476562 145.33570313 -72.17578125 145.34765625 C-70.53385568 145.35703868 -68.89192847 145.3661384 -67.25 145.375 C-66.43337891 145.38337891 -65.61675781 145.39175781 -64.77539062 145.40039062 C-60.66848277 145.41701778 -56.95713148 145.24458846 -52.9375 144.3125 C-50.60448014 144.27425377 -48.27038492 144.26675716 -45.9375 144.3125 C-45.77894531 144.95316406 -45.62039063 145.59382812 -45.45703125 146.25390625 C-43.15579366 154.78501354 -40.57194026 159.91728424 -32.9375 164.625 C-25.27495678 168.99504418 -19.06898097 170.45127405 -10.4375 168.3125 C-9.2825 167.9825 -8.1275 167.6525 -6.9375 167.3125 C-6.85659029 165.68831255 -6.79835005 164.06298255 -6.75 162.4375 C-6.71519531 161.53257812 -6.68039062 160.62765625 -6.64453125 159.6953125 C-6.74121094 158.90898438 -6.83789062 158.12265625 -6.9375 157.3125 C-10.33414192 155.04807205 -12.2392941 154.92096221 -16.25 154.5 C-22.16146988 153.6385956 -25.11283101 152.94236247 -28.9375 148.3125 C-32.37745047 142.49104535 -32.9947326 135.91139346 -31.9375 129.3125 C-27.87786695 117.42577142 -19.9287651 108.32020863 -8.90625 102.46875 C-6.78632289 101.46412343 -6.78632289 101.46412343 -5.9375 99.3125 C-5.67889865 95.26107881 -5.63308446 93.76912331 -7.9375 90.3125 C-14.77819434 89.04570475 -19.2232935 91.51642458 -24.98046875 95.14453125 C-35.05354898 102.52968254 -41.96036654 113.59984978 -46.4453125 125.1484375 C-47.9375 128.3125 -47.9375 128.3125 -51.4375 129.75 C-61.68405597 131.43899274 -71.85847482 130.76413075 -80.8125 125.125 C-85.35503163 121.60025258 -87.16755492 116.62233523 -88.9375 111.3125 C-89.66834765 103.33308144 -88.91362018 97.27419814 -84.9375 90.3125 C-84.421875 89.301875 -83.90625 88.29125 -83.375 87.25 C-76.58193958 79.06349129 -67.43941844 73.93094633 -56.9375 72.3125 C-53.20435514 72.43924257 -49.62432118 72.77401228 -45.93359375 73.34375 C-42.84786808 73.60360132 -42.84786808 73.60360132 -40.5625 71.5625 C-38.24132076 68.34855951 -38.45345711 66.18484314 -38.9375 62.3125 C-39.70141002 59.79380668 -39.70141002 59.79380668 -41.9375 58.3125 C-52.85365565 55.30114672 -66.0618162 60.0517373 -76.0546875 64.578125 C-77.9375 65.3125 -77.9375 65.3125 -80.9375 65.3125 C-81.95741722 55.06799813 -78.71156914 46.66174414 -72.5625 38.5 C-71.37385132 37.08736613 -70.16619146 35.69044682 -68.9375 34.3125 C-68.41542969 33.69761719 -67.89335937 33.08273437 -67.35546875 32.44921875 C-61.73551772 26.28231384 -52.7472274 19.61043474 -44.1953125 19.171875 C-42.64457031 19.11773438 -42.64457031 19.11773438 -41.0625 19.0625 C-36.15954132 18.6830139 -36.15954132 18.6830139 -32 16.125 C-31.319375 15.196875 -30.63875 14.26875 -29.9375 13.3125 C-22.45306705 3.33325606 -12.2511424 -0.05169258 0 0 Z " transform="translate(486.9375,602.6875)" style="fill: rgb(244, 162, 97);"></path>
  <path d="M0 0 C4.04704993 3.38495587 5.71555066 6.57375809 6.22265625 11.84765625 C5.84900624 16.33145637 4.80062552 19.22074215 1.91015625 22.59765625 C0.12401919 24.06778444 -1.69161818 25.50243677 -3.52734375 26.91015625 C-9.83118809 31.89929508 -13.45012113 36.58755137 -14.484375 44.6875 C-14.7040181 51.26865793 -14.18489232 56.11572661 -9.68359375 61.1796875 C-2.84547454 67.8081474 5.35633496 68.91661607 14.5625 68.99609375 C17.35824673 68.52160762 18.25905724 67.87392868 19.91015625 65.59765625 C20.4483473 61.54126519 20.4483473 61.54126519 18.72265625 58 C16.4024336 56.20482773 14.39160467 55.79014008 11.53515625 55.16015625 C3.66951257 53.11821431 3.66951257 53.11821431 0.91015625 49.59765625 C0.27837831 45.1752107 0.17318586 42.91138607 2.34765625 39.03515625 C4.56650029 36.9245485 6.74958617 35.25782458 9.22265625 33.47265625 C13.93414876 29.97578496 16.44363143 25.97752801 19.20703125 20.85546875 C20.91015625 18.59765625 20.91015625 18.59765625 23.19140625 17.5390625 C27.03979698 17.62200196 29.56548036 19.31831418 32.66015625 21.41015625 C33.27487793 21.81814453 33.88959961 22.22613281 34.52294922 22.64648438 C42.56848846 28.18582865 50.78184749 35.70313471 52.91015625 45.59765625 C54.31546323 57.98612555 52.73800071 68.53328481 44.91015625 78.59765625 C37.5141123 87.70208218 27.34527879 92.04711417 15.91015625 93.59765625 C10.71288603 93.94561377 5.51203103 94.01005687 0.3046875 94.07617188 C-0.72011719 94.10259766 -1.74492188 94.12902344 -2.80078125 94.15625 C-3.72165527 94.16970459 -4.6425293 94.18315918 -5.59130859 94.19702148 C-8.57103517 94.67481426 -9.96010795 95.4749685 -12.08984375 97.59765625 C-12.67926514 102.14488236 -12.67926514 102.14488236 -11.03295898 106.28930664 C-8.06350638 108.28871568 -5.02334482 108.04551028 -1.5625 108.03125 C-0.81834335 108.03649185 -0.07418671 108.0417337 0.69252014 108.0471344 C2.27197017 108.05355975 3.85146803 108.05221091 5.4309082 108.04370117 C7.80836593 108.03529517 10.18333316 108.0637693 12.56054688 108.09570312 C28.30287855 108.17008171 41.97004272 103.92917123 53.91015625 93.16015625 C56.91015625 90.59765625 56.91015625 90.59765625 60.91015625 90.59765625 C61.56010922 92.0124376 62.20494347 93.42957112 62.84765625 94.84765625 C63.20730469 95.6365625 63.56695313 96.42546875 63.9375 97.23828125 C67.55166576 106.0051733 66.71891343 115.41270453 63.171875 124.0625 C58.4088033 133.63288245 51.12953542 139.74034481 41.73046875 144.51953125 C39.74718959 145.4721934 39.74718959 145.4721934 38.91015625 147.59765625 C38.64361798 149.42865829 38.3966415 151.26253069 38.16015625 153.09765625 C36.74224622 161.72931292 33.83403836 169.01256402 26.71875 174.4140625 C20.76452305 178.31067323 14.94158407 179.86580426 7.91015625 178.59765625 C5.8860262 177.47009444 4.21866804 176.19736315 2.43359375 174.7265625 C0.85179874 173.3899401 0.85179874 173.3899401 -1.77734375 173.03515625 C-4.9439178 173.80540399 -6.13469184 175.01406266 -8.08984375 177.59765625 C-9.31318177 180.98536155 -9.03211492 182.92828501 -8.40234375 186.53515625 C-7.9331097 189.85733333 -8.09194887 190.60221735 -9.58984375 193.84765625 C-13.53330012 198.18545826 -16.42716367 200.3021718 -22.22265625 200.9453125 C-29.55281123 201.13733251 -34.3268569 200.48681504 -40.21777344 195.96386719 C-42.77346148 192.73359483 -42.59648579 189.92867251 -42.48046875 185.98828125 C-42.47480896 185.26147156 -42.46914917 184.53466187 -42.46331787 183.78582764 C-42.44098928 181.4724238 -42.39080423 179.16058905 -42.33984375 176.84765625 C-42.31977398 175.27606409 -42.30152404 173.70444757 -42.28515625 172.1328125 C-42.24113668 168.28715908 -42.1721375 164.44267336 -42.08984375 160.59765625 C-41.36506836 160.62384033 -40.64029297 160.65002441 -39.89355469 160.67700195 C-36.54254703 160.78228735 -33.1918888 160.84639452 -29.83984375 160.91015625 C-28.7003125 160.95205078 -27.56078125 160.99394531 -26.38671875 161.03710938 C-14.99497066 161.19892398 -5.35338496 157.98361513 2.9296875 149.95703125 C8.79442494 142.97024345 11.61210373 135.88724013 11.4140625 126.77734375 C11.08504319 124.21900016 11.08504319 124.21900016 7.91015625 122.59765625 C4.66052229 122.25195051 2.66550584 122.15960965 -0.19140625 123.81640625 C-2.48464526 125.9680873 -2.85015293 127.36980296 -3.52734375 130.41015625 C-5.25761779 136.76683145 -7.66509029 139.90926375 -13.1640625 143.73828125 C-17.58912823 146.19227609 -21.69344424 146.1206831 -26.65234375 145.97265625 C-27.47669922 145.97136719 -28.30105469 145.97007812 -29.15039062 145.96875 C-33.90686898 145.90031146 -37.56138457 145.15480792 -42.08984375 143.59765625 C-42.20659508 124.7611579 -42.29479164 105.92473287 -42.34890461 87.08794785 C-42.37469699 78.34187482 -42.40986706 69.59602648 -42.46704102 60.85009766 C-42.51684459 53.22799318 -42.54912725 45.6060514 -42.56028622 37.98378873 C-42.56681024 33.94698273 -42.58216428 29.91064223 -42.61849403 25.87398529 C-42.65240586 22.07524873 -42.66290677 18.27716983 -42.65538216 14.47829628 C-42.6567589 13.08346547 -42.66672095 11.68861291 -42.68587112 10.29391289 C-42.71072551 8.39058175 -42.70179163 6.48689854 -42.69111633 4.58343506 C-42.6957253 3.51784237 -42.70033426 2.45224968 -42.70508289 1.3543663 C-41.87150742 -2.38064621 -40.2480055 -3.37150873 -37.08984375 -5.40234375 C-24.53626903 -10.63299988 -10.82784412 -7.3692224 0 0 Z " transform="translate(567.08984375,610.40234375)" style="fill: rgb(231, 111, 81);"></path>
</svg><style>@media (prefers-color-scheme: light) { :root { filter: none; } }
@media (prefers-color-scheme: dark) { :root { filter: none; } }
</style></svg>